<?xml version="1.0" standalone="no"?>
<!DOCTYPE svg PUBLIC "-//W3C//DTD SVG 20010904//EN"
 "http://www.w3.org/TR/2001/REC-SVG-20010904/DTD/svg10.dtd">
<svg version="1.0" xmlns="http://www.w3.org/2000/svg"
 width="577.000000pt" height="433.000000pt" viewBox="0 0 577.000000 433.000000"
 preserveAspectRatio="xMidYMid meet">

<g transform="translate(0.000000,433.000000) scale(0.100000,-0.100000)"
fill="#000000" stroke="none">
<path d="M2965 2950 c-4 -6 -15 -8 -26 -5 -17 6 -19 1 -19 -54 0 -48 3 -61 15
-61 11 0 15 12 15 46 0 37 4 47 20 51 11 3 20 12 20 19 0 16 -16 19 -25 4z"/>
<path d="M2785 2926 c-25 -18 -14 -32 13 -17 12 6 25 11 31 11 19 0 12 -28 -8
-35 -29 -9 -43 -31 -36 -55 7 -21 49 -28 60 -10 4 6 15 8 26 5 28 -9 43 3 27
22 -7 9 -18 32 -23 52 -9 30 -16 37 -40 39 -17 2 -39 -4 -50 -12z m60 -86
c-12 -11 -17 -12 -27 -1 -11 10 -9 15 6 27 25 18 43 -4 21 -26z"/>
<path d="M3027 2922 c-26 -28 -22 -78 7 -98 28 -18 67 -16 74 5 3 10 -1 12
-19 8 -24 -7 -49 7 -49 28 0 9 11 10 41 5 47 -9 59 5 41 46 -14 30 -70 34 -95
6z m71 -19 c2 -8 -6 -13 -22 -13 -17 0 -26 5 -26 16 0 19 41 16 48 -3z"/>
<path d="M2715 2908 c-3 -8 -1 -27 5 -42 17 -46 11 -51 -23 -18 -31 30 -57 41
-57 25 0 -5 4 -25 9 -45 11 -47 4 -48 -31 -6 -18 22 -30 30 -36 23 -7 -7 5
-27 33 -59 52 -58 70 -55 60 13 l-7 46 36 -34 c49 -47 62 -33 42 44 -16 64
-23 75 -31 53z"/>
<path d="M3246 2898 c-49 -79 -66 -109 -66 -115 0 -7 85 -63 95 -63 14 0 2 30
-14 35 -32 10 -44 31 -31 55 10 19 13 19 33 5 23 -16 47 -20 47 -7 0 5 -11 15
-25 22 -14 7 -25 20 -25 27 0 22 28 26 56 8 17 -11 30 -13 36 -7 6 6 -7 19
-36 36 -54 32 -52 31 -70 4z"/>
<path d="M2492 2778 c1 -20 6 -28 18 -28 10 0 25 -11 34 -24 22 -34 53 -42 77
-20 14 13 17 20 8 28 -8 8 -13 7 -16 -1 -3 -7 -10 -13 -17 -13 -17 0 -58 58
-46 65 20 12 9 21 -24 21 -31 0 -34 -3 -34 -28z"/>
<path d="M3330 2755 c-30 -30 -41 -48 -34 -55 7 -7 20 0 39 20 31 33 62 39 72
14 3 -9 -7 -28 -28 -50 -22 -23 -30 -37 -23 -44 14 -14 87 62 82 86 -2 11 -13
23 -26 29 -12 5 -22 15 -22 22 0 27 -19 20 -60 -22z"/>
<path d="M2414 2755 c-15 -24 -15 -27 0 -44 9 -9 16 -23 16 -30 0 -6 6 -11 13
-9 6 2 29 -10 50 -26 26 -20 41 -26 48 -19 7 7 -3 21 -31 43 -29 23 -38 36
-31 43 6 6 11 15 11 19 0 13 -28 9 -33 -4 -4 -10 -7 -10 -18 0 -10 9 -10 15
-1 24 15 15 16 28 2 28 -5 0 -17 -11 -26 -25z"/>
<path d="M3448 2659 c-10 -5 -18 -16 -18 -24 0 -8 -7 -11 -20 -8 -12 3 -20 0
-20 -7 0 -6 -8 -9 -19 -5 -10 3 -23 -1 -31 -10 -18 -22 18 -89 52 -93 39 -5
53 20 33 58 -20 39 -12 51 15 22 24 -25 52 -28 70 -8 6 8 18 12 26 9 8 -3 14
0 14 6 0 6 -7 11 -15 11 -8 0 -15 5 -15 10 0 12 -37 50 -47 50 -5 0 -16 -5
-25 -11z m48 -30 c10 -17 -23 -46 -37 -32 -7 7 -9 19 -6 27 7 18 33 21 43 5z
m-98 -60 c19 -30 -3 -53 -24 -25 -8 11 -14 26 -14 33 0 20 24 15 38 -8z"/>
<path d="M2410 2633 c-41 -14 -54 -78 -22 -106 43 -39 112 -8 112 49 0 35 -54
70 -90 57z m50 -43 c36 -36 -3 -74 -46 -45 -26 17 -30 35 -12 53 17 17 35 15
58 -8z"/>
<path d="M3580 2550 c0 -13 5 -20 13 -17 6 2 12 10 12 17 0 7 -6 15 -12 18 -8
2 -13 -5 -13 -18z"/>
<path d="M3493 2527 c-29 -11 -53 -26 -53 -33 0 -8 2 -14 4 -14 15 0 116 44
116 51 0 17 -17 16 -67 -4z"/>
<path d="M2280 2465 c-12 -37 -3 -68 25 -79 24 -9 42 3 64 40 20 33 50 46 52
22 3 -27 -3 -43 -19 -56 -12 -9 -13 -15 -4 -24 18 -18 41 9 49 55 7 45 -9 67
-48 67 -24 0 -33 -7 -46 -35 -11 -22 -24 -35 -36 -35 -20 0 -20 19 -2 63 5 12
3 17 -8 17 -9 0 -20 -15 -27 -35z"/>
<path d="M3491 2461 c-19 -3 -37 -12 -39 -20 -4 -11 5 -13 46 -8 37 4 54 2 62
-8 20 -24 4 -42 -44 -49 -30 -5 -46 -12 -46 -22 0 -11 9 -13 43 -8 23 4 50 11
60 16 19 9 23 53 7 63 -6 4 -8 15 -5 26 5 16 2 19 -22 18 -15 -1 -43 -4 -62
-8z"/>
<path d="M3483 2308 c-18 -24 -22 -48 -12 -74 12 -33 24 -23 24 19 0 23 5 33
19 35 16 3 17 -1 11 -37 -8 -46 8 -61 44 -41 29 15 37 55 17 85 -13 20 -25 25
-55 25 -21 0 -43 -6 -48 -12z m87 -62 c-18 -23 -30 -20 -30 7 0 32 11 40 29
23 12 -12 12 -18 1 -30z"/>
<path d="M2310 2225 c0 -8 5 -15 11 -15 6 0 8 -9 4 -21 -7 -21 -5 -22 46 -15
29 4 60 11 68 16 14 8 14 9 -2 15 -9 4 -29 5 -44 2 -33 -6 -53 1 -53 19 0 8
-7 14 -15 14 -8 0 -15 -7 -15 -15z"/>
<path d="M3462 2174 c-16 -11 -22 -25 -22 -50 0 -24 4 -34 12 -32 7 3 13 15
13 28 0 22 28 50 40 39 3 -3 -2 -23 -10 -44 -18 -41 -18 -40 12 -49 28 -9 63
24 63 58 0 27 -42 66 -69 66 -9 0 -27 -7 -39 -16z m82 -39 c8 -21 -3 -45 -20
-45 -16 0 -16 5 -8 38 7 25 19 29 28 7z"/>
<path d="M2427 2154 c-4 -4 0 -15 9 -25 17 -19 16 -50 -2 -56 -6 -2 -16 15
-23 37 -13 45 -22 49 -51 20 -26 -26 -25 -43 4 -76 21 -25 27 -27 57 -18 47
13 67 50 48 89 -15 30 -30 40 -42 29z m-27 -65 c13 -24 8 -34 -15 -26 -16 7
-21 47 -5 47 5 0 14 -9 20 -21z"/>
<path d="M3406 2061 c-3 -4 11 -19 32 -32 29 -20 37 -31 35 -52 -1 -18 3 -27
13 -27 8 0 14 9 14 20 0 11 5 20 10 20 26 0 5 31 -36 54 -50 28 -60 31 -68 17z"/>
<path d="M2470 2031 c0 -5 9 -13 20 -16 27 -9 26 -51 -1 -65 -28 -15 -47 -6
-60 27 -8 21 -12 24 -19 14 -12 -21 3 -54 34 -71 23 -13 29 -13 53 0 39 22 51
61 29 94 -16 25 -56 36 -56 17z"/>
<path d="M3324 1949 c-10 -17 13 -36 27 -22 12 12 4 33 -11 33 -5 0 -12 -5
-16 -11z"/>
<path d="M2531 1911 c-17 -21 -31 -45 -31 -53 0 -19 20 -38 42 -38 10 0 18 -7
18 -15 0 -25 16 -17 55 26 41 46 56 44 36 -4 -22 -52 -19 -79 10 -96 16 -9 33
-11 45 -6 16 6 15 9 -13 17 -50 13 -43 39 8 36 31 -2 44 2 53 15 9 15 7 22
-13 38 -12 10 -27 17 -31 14 -5 -3 -23 8 -42 25 l-33 30 -30 -36 c-25 -29 -35
-35 -53 -30 -29 10 -28 21 8 66 27 34 30 50 9 50 -4 0 -21 -18 -38 -39z m197
-98 c5 -16 -22 -27 -44 -19 -13 5 -14 9 -4 22 15 17 41 15 48 -3z"/>
<path d="M3244 1875 c-4 -8 1 -26 10 -40 16 -24 15 -25 -14 -40 -31 -16 -40
-35 -17 -35 7 0 22 6 33 14 13 10 23 11 31 4 21 -17 15 -37 -18 -54 -21 -10
-28 -19 -21 -26 10 -10 92 29 92 45 0 10 -81 147 -86 147 -3 0 -7 -7 -10 -15z"/>
<path d="M3136 1821 c-4 -6 -1 -29 5 -52 12 -37 11 -43 -5 -55 -10 -7 -16 -18
-14 -25 3 -8 9 -7 20 5 9 9 24 13 32 10 21 -8 20 9 -2 68 -20 54 -27 63 -36
49z"/>
<path d="M2774 1783 c0 -21 -7 -61 -16 -90 -14 -42 -14 -52 -3 -57 9 -3 20 16
35 66 23 77 23 111 0 116 -12 2 -16 -6 -16 -35z"/>
<path d="M2851 1791 c-21 -13 -5 -29 25 -23 16 3 29 -1 35 -9 16 -25 10 -29
-36 -22 -43 5 -45 5 -45 -20 0 -26 31 -57 58 -57 20 0 62 47 62 70 0 26 -43
70 -67 70 -10 0 -24 -4 -32 -9z m59 -86 c0 -9 -9 -15 -25 -15 -16 0 -25 6 -25
15 0 9 9 15 25 15 16 0 25 -6 25 -15z"/>
<path d="M2993 1790 c-13 -5 -23 -13 -23 -18 0 -17 12 -21 30 -10 19 12 50 5
50 -12 0 -5 -18 -13 -40 -16 -47 -8 -54 -34 -15 -60 67 -44 128 65 62 111 -24
17 -33 18 -64 5z m61 -85 c-4 -8 -17 -15 -30 -15 -15 0 -24 6 -24 15 0 10 10
15 30 15 22 0 28 -4 24 -15z"/>
</g>
</svg>
